<?xml version="1.0" encoding="utf-8"?>
<svg width="18.5" height="19.937" viewBox="0 0 18.5 19.937" xmlns="http://www.w3.org/2000/svg">
  <defs>
    <style>
      .cls-1 {
        fill: #ff6b00;
        fill-rule: evenodd;
      }
    </style>
  </defs>
  <path id="Forma_1" data-name="Forma 1" class="cls-1" d="M 1648.75 639.2 C 1648.74 638.662 1648.73 638.151 1648.73 637.662 C 1648.705 637.255 1648.357 636.945 1647.95 636.967 C 1645.065 637.111 1642.235 636.145 1640.04 634.267 C 1639.728 634.004 1639.272 634.004 1638.96 634.267 C 1636.765 636.145 1633.935 637.111 1631.05 636.967 C 1630.643 636.945 1630.295 637.255 1630.27 637.662 C 1630.27 638.151 1630.26 638.662 1630.25 639.2 C 1630.15 644.208 1630 651.069 1639.25 653.964 C 1639.413 654.013 1639.587 654.013 1639.75 653.964 C 1649 651.068 1648.86 644.206 1648.75 639.2 Z M 1639.5 652.563 C 1631.57 649.963 1631.69 644.263 1631.8 639.227 C 1631.8 638.927 1631.81 639.041 1631.81 638.76 C 1633.33 638.503 1634.899 638.198 1636.091 637.633 C 1637.257 637.08 1638.214 636.435 1639.167 635.726 C 1639.797 635.257 1639.371 635.246 1639.892 635.668 C 1640.413 636.09 1642.37 637.181 1643.017 637.424 C 1644.707 638.059 1645.741 638.309 1647.19 638.346 C 1647.19 638.631 1647.2 638.924 1647.2 639.227 C 1647.31 644.261 1647.43 649.959 1639.5 652.562 L 1639.5 652.563 Z M 1642.16 641.608 L 1638.43 644.978 L 1636.84 643.542 C 1636.528 643.268 1636.062 643.268 1635.75 643.542 C 1635.45 643.803 1635.45 644.268 1635.75 644.529 L 1637.89 646.458 C 1638.038 646.59 1638.231 646.662 1638.43 646.658 C 1638.632 646.662 1638.828 646.591 1638.98 646.458 L 1643.25 642.596 C 1643.55 642.335 1643.55 641.869 1643.25 641.608 C 1642.937 641.338 1642.473 641.337 1642.16 641.607 L 1642.16 641.608 Z" transform="translate(-1630.25 -634.063)"/>
</svg>