<svg 
xmlns="http://www.w3.org/2000/svg"
xmlns:xlink="http://www.w3.org/1999/xlink"
width="179px" height="118px">
<path fill-rule="evenodd"  fill="#ec9a6a"
d="M179.000,35.000 L172.000,41.000 C172.000,41.000 164.325,32.948 162.000,31.000 C159.675,29.052 154.375,25.023 153.000,24.000 C151.625,22.977 144.259,18.672 143.000,18.000 C141.741,17.328 132.881,13.511 131.000,13.000 C129.119,12.489 120.254,10.390 116.000,10.000 C111.746,9.610 106.878,8.910 103.000,9.000 C99.122,9.090 91.139,9.092 87.000,10.000 C82.861,10.908 78.783,11.572 75.000,13.000 C71.217,14.428 67.140,15.893 63.000,18.000 C58.860,20.107 52.354,23.310 50.000,25.000 C47.646,26.690 43.873,29.217 42.000,31.000 C40.127,32.783 33.715,38.930 32.000,41.000 C30.285,43.070 24.670,50.666 24.000,52.000 C23.330,53.334 20.239,58.846 19.000,62.000 C17.761,65.154 15.190,71.719 14.000,76.000 C12.810,80.281 11.488,86.445 11.000,92.000 C10.512,97.555 9.850,105.435 10.000,109.000 C10.150,112.565 11.000,118.000 11.000,118.000 L3.000,118.000 C3.000,118.000 1.217,114.127 1.000,108.000 C0.783,101.873 0.778,92.984 1.000,90.000 C1.222,87.016 3.349,76.577 4.000,74.000 C4.651,71.423 7.610,63.030 9.000,60.000 C10.390,56.970 13.032,51.266 15.000,48.000 C16.968,44.734 21.823,37.571 24.000,35.000 C26.177,32.429 33.314,25.264 36.000,23.000 C38.686,20.736 47.801,14.230 50.000,13.000 C52.199,11.770 58.141,8.644 63.000,7.000 C67.859,5.356 74.375,3.029 79.000,2.000 C83.625,0.971 91.798,0.009 97.000,-0.000 C102.202,-0.009 113.006,0.235 118.000,1.000 C122.994,1.765 133.830,4.332 138.000,6.000 C142.170,7.668 152.019,12.219 155.000,14.000 C157.981,15.781 167.076,22.139 170.000,25.000 C172.924,27.861 179.000,35.000 179.000,35.000 Z"/>
</svg>